<?xml version="1.0" encoding="UTF-8"?><svg id="Capa_2" xmlns="http://www.w3.org/2000/svg" viewBox="0 0 425.11 505.6"><defs><style>.cls-1{fill:#e84728;}.cls-1,.cls-2{stroke-width:0px;}.cls-2{fill:#fff;}</style></defs><g id="Capa_1-2"><path class="cls-1" d="M186.08,162.06c.23.15.48.32,1.23.74,7.4,4.17,13.69,10.08,18.39,17.16,3.06,4.62,5.98,9.01,6.92,10.46.94-1.45,3.86-5.84,6.92-10.46,4.69-7.09,10.98-12.99,18.39-17.16.75-.42,1.01-.59,1.23-.74.01-3.59.03-4.84.04-13.54,0-.37,0-.74,0-1.45-.24.16-.48.32-1.27.77-7.4,4.17-13.69,10.08-18.39,17.16-3.06,4.62-5.98,9.01-6.92,10.46-.94-1.45-3.86-5.84-6.92-10.46-4.69-7.09-10.98-12.99-18.39-17.16-.79-.45-1.04-.61-1.27-.77,0,.71,0,1.08,0,1.45.01,8.7.03,9.96.04,13.54Z"/><path class="cls-1" d="M212.58,165.82s.03.06.04.06c0,0,.04-.06.04-.06,5.16-10.85,13.99-19.52,24.92-24.49.5-.23.8-.37,1.49-.69-6.66-8.42-16.5-12.82-26.45-12.85h0s0,0,0,0c0,0,0,0,0,0h0c-9.95.03-19.79,4.42-26.45,12.85.7.32.99.46,1.49.69,10.94,4.97,19.77,13.64,24.92,24.49Z"/><path class="cls-2" d="M76.15,460.64l-2.93-6.13h-9.23l-2.9,6.13-3.07-1.45,10.56-22.38,10.62,22.38-3.07,1.45ZM65.61,451.09h5.99l-3.01-6.33-2.98,6.33Z"/><path class="cls-2" d="M98.67,438.91l3.04-1.53,8.21,16.13,8.18-16.13,3.04,1.53-11.19,22.09-11.27-22.09Z"/><path class="cls-2" d="M147.2,459.9v-21.95h3.41v21.95h-3.41Z"/><path class="cls-2" d="M195.22,460.64l-2.93-6.13h-9.23l-2.9,6.13-3.07-1.45,10.56-22.38,10.62,22.38-3.07,1.45ZM184.68,451.09h5.99l-3.01-6.33-2.98,6.33Z"/><path class="cls-2" d="M237.39,441.35h-6.96v18.54h-3.41v-18.54h-6.93v-3.41h17.29v3.41Z"/><path class="cls-2" d="M264.45,459.9v-21.95h3.41v21.95h-3.41Z"/><path class="cls-2" d="M306.51,460.44c-1.55,0-3.05-.3-4.49-.91-1.36-.57-2.58-1.39-3.66-2.47-1.08-1.08-1.9-2.3-2.47-3.66-.61-1.44-.91-2.93-.91-4.49s.3-3.05.91-4.49c.57-1.36,1.39-2.58,2.47-3.66s2.3-1.9,3.66-2.47c1.44-.61,2.93-.91,4.49-.91s3.05.3,4.49.91c1.36.57,2.58,1.39,3.66,2.47,1.08,1.08,1.9,2.3,2.47,3.66.61,1.44.91,2.93.91,4.49s-.3,3.05-.91,4.49c-.57,1.36-1.39,2.58-2.47,3.66-1.08,1.08-2.3,1.9-3.66,2.47-1.44.61-2.93.91-4.49.91ZM306.51,440.79c-1.12,0-2.17.21-3.15.64-.98.43-1.85,1.01-2.58,1.75-.74.74-1.32,1.6-1.75,2.58-.43.98-.64,2.04-.64,3.15s.21,2.17.64,3.15c.43.98,1.01,1.85,1.75,2.58.74.74,1.6,1.32,2.58,1.75.98.43,2.03.64,3.15.64s2.17-.21,3.15-.64c.98-.43,1.85-1.01,2.58-1.75.74-.74,1.32-1.6,1.75-2.58.43-.98.64-2.03.64-3.15s-.21-2.17-.64-3.15c-.43-.98-1.01-1.85-1.75-2.58-.74-.74-1.6-1.32-2.58-1.75-.98-.43-2.04-.64-3.15-.64Z"/><path class="cls-2" d="M348.68,444.99v14.91h-3.41v-22.97l16.47,16.04v-15.02h3.41v23.09l-16.47-16.04Z"/><path class="cls-2" d="M88.07,505.34l-3.83-8.49h-9.94l-3.83,8.49-1.28-.6,10.08-22.29,10.11,22.29-1.31.6ZM74.95,495.43h8.63l-4.32-9.54-4.32,9.54Z"/><path class="cls-2" d="M123.86,505.37c-1.5,0-2.97-.29-4.43-.88-.66-.3-1.3-.65-1.9-1.05-.61-.4-1.16-.86-1.68-1.39-1.08-1.08-1.89-2.28-2.44-3.61-.59-1.36-.88-2.83-.88-4.4s.29-3.04.88-4.4c.57-1.38,1.38-2.58,2.44-3.61,1.02-1.04,2.22-1.86,3.58-2.44,1.4-.59,2.88-.88,4.43-.88s3.04.29,4.4.88c1.32.55,2.53,1.36,3.61,2.44l-1.02.99c-.93-.95-1.99-1.67-3.19-2.16-1.2-.49-2.47-.74-3.79-.74s-2.65.26-3.86.78c-1.21.52-2.26,1.23-3.15,2.12-.89.89-1.6,1.94-2.12,3.15-.52,1.21-.78,2.5-.78,3.86s.26,2.65.78,3.85c.52,1.2,1.23,2.25,2.12,3.15.89.9,1.94,1.61,3.15,2.13,1.21.52,2.5.78,3.86.78s2.59-.25,3.79-.74c1.2-.49,2.27-1.21,3.19-2.16l1.02.99c-1.08,1.08-2.28,1.89-3.61,2.44-1.44.59-2.91.88-4.4.88Z"/><path class="cls-2" d="M176.53,505.34l-3.83-8.49h-9.94l-3.83,8.49-1.28-.6,10.08-22.29,10.11,22.29-1.31.6ZM163.41,495.43h8.63l-4.32-9.54-4.32,9.54Z"/><path class="cls-2" d="M209.42,505.03h-6.53v-21.95h6.53c1.57,0,3.05.27,4.43.81,1.38.54,2.59,1.32,3.63,2.34,1.02,1.02,1.81,2.2,2.36,3.52.55,1.32.82,2.73.82,4.2s-.27,2.94-.8,4.27c-.53,1.33-1.29,2.51-2.27,3.54-.49.51-1.04.97-1.65,1.36-.61.4-1.24.74-1.9,1.02-.72.28-1.46.5-2.23.65-.77.15-1.57.23-2.4.23ZM204.31,503.61h5.11c1.42,0,2.73-.24,3.93-.72,1.2-.48,2.24-1.15,3.11-2,.87-.85,1.55-1.87,2.04-3.05.49-1.18.74-2.47.74-3.88s-.25-2.59-.75-3.75c-.5-1.15-1.19-2.15-2.07-3-.88-.84-1.92-1.51-3.11-1.99-1.19-.48-2.49-.72-3.89-.72h-5.11v19.11Z"/><path class="cls-2" d="M249.37,484.5v8.29h10.34v1.42h-10.34v9.4h10.62v1.42h-12.04v-21.95h12.04v1.42h-10.62Z"/><path class="cls-2" d="M292.59,487.23l-3.92,18.06-1.36-.31,4.83-22.35,8.43,19.4,8.41-19.42,4.86,22.41-1.36.31-3.95-18.12-7.95,18.4-7.98-18.37Z"/><path class="cls-2" d="M347.37,496.23v8.8h-1.42v-8.8l-8.89-12.75,1.16-.8,8.43,12.07,8.43-12.07,1.16.8-8.89,12.75Z"/><path class="cls-2" d="M183.93,379.26l-13.02,29.83h-33.45l60.57-139.75h32l60.75,139.75h-33.63l-12.84-29.83h-60.39ZM213.94,309.83l-16.81,38.69h33.81l-16.99-38.69Z"/><path class="cls-2" d="M135.04,267.92l.55,141.17h-33.09l-71.77-93.47v93.47H0v-139.75h33.99l70.87,92.39v-93.64l30.18-.17Z"/><path class="cls-2" d="M425.11,270.75l-62.55,139.75h-29.83l-69.21-141.17h33.63l50.41,99.41,43.93-97.99h33.63Z"/><path class="cls-1" d="M128.07,141.95c-.18-.28-.34-.55-.52-.84-1.11-1.76-2.25-3.58-3.37-5.49-2.97-5.06-4.88-10.03-5.78-15.08-5.15-4.16-10.45-8.45-15.65-12.76-9.67-8.02-19.72-16.35-29.99-24.87-2.17-1.49-4.13-2.95-5.81-4.37-9.67-8.16-19.33-16.32-29-24.48,2.11,21.19,8.02,41.26,17.05,59.52,17.77,7.02,35.52,14.07,53.29,21.1.42.17,16.21,6.01,19.78,7.25Z"/><path class="cls-1" d="M130.63,164.08c.95.06,6,.4,11.23.75-2.01-3.36-4.02-6.71-6.01-10.01-.88-1.46-1.76-2.93-2.64-4.4-17.94-4.85-47.9-11.63-66.48-16.6,6.63,9.83,14.25,18.95,22.7,27.21,2.72.34,5.96.73,9.89,1.17,10.39,1.16,20.87,1.26,31.3,1.87Z"/><path class="cls-1" d="M153.6,184.61c-2.52-4.3-5.08-8.62-7.65-12.94-1.07-.11-2.21-.02-3.43.31-6.97,1.86-19.92,2.09-37.53,2.57,9.19,7.08,19.11,13.27,29.63,18.43,1.92-.82,14.46-1.59,21.9-3.36-.96-1.66-1.93-3.33-2.92-5.01Z"/><path class="cls-1" d="M153.29,125.35c-3.83-7.97-2.34-17.16-5.12-25.33-3.5-7.44-10.99-11.96-16.62-17.68C101.36,54.85,71.01,27.64,40.96,0c-2.53,11.82-3.88,24.07-3.88,36.64,0,.33.01.65.01.98,30.31,26.48,63.11,50.97,92.59,77.84.5,8.95,6.09,16.26,10.58,23.66,11.39,18.97,22.85,37.9,33.74,57.17,12.79,11.75,12.95,11.79,14.17,12.86,1.22,1.07,3.5,3.16,20.61,19.08-1.44-2.51-44.37-80.59-55.5-102.89Z"/><path class="cls-1" d="M297.62,141.95c.18-.28.34-.55.52-.84,1.11-1.76,2.25-3.58,3.37-5.49,2.97-5.06,4.88-10.03,5.78-15.08,5.15-4.16,10.45-8.45,15.65-12.76,9.67-8.02,19.72-16.35,29.99-24.87,2.17-1.49,4.13-2.95,5.81-4.37,9.67-8.16,19.33-16.32,29-24.48-2.11,21.19-8.02,41.26-17.05,59.52-17.77,7.02-35.52,14.07-53.29,21.1-.42.17-16.21,6.01-19.78,7.25Z"/><path class="cls-1" d="M295.06,164.08c-.95.06-6,.4-11.23.75,2.01-3.36,4.02-6.71,6.01-10.01.88-1.46,1.76-2.93,2.64-4.4,17.94-4.85,47.9-11.63,66.48-16.6-6.63,9.83-14.25,18.95-22.7,27.21-2.72.34-5.96.73-9.89,1.17-10.39,1.16-20.87,1.26-31.3,1.87Z"/><path class="cls-1" d="M272.09,184.61c2.52-4.3,5.08-8.62,7.65-12.94,1.07-.11,2.21-.02,3.43.31,6.97,1.86,19.92,2.09,37.53,2.57-9.19,7.08-19.11,13.27-29.63,18.43-1.92-.82-14.46-1.59-21.9-3.36.96-1.66,1.93-3.33,2.92-5.01Z"/><path class="cls-1" d="M216.91,228.24c1.44-2.51,44.37-80.59,55.5-102.89,3.83-7.97,2.34-17.16,5.12-25.33,3.5-7.44,10.99-11.96,16.62-17.68C324.33,54.85,354.68,27.64,384.72,0c2.53,11.82,3.88,24.07,3.88,36.64,0,.33-.01.65-.01.98-30.31,26.48-63.11,50.97-92.59,77.84-.5,8.95-6.09,16.26-10.58,23.66-11.39,18.97-22.85,37.9-33.74,57.17"/></g></svg>