<?xml version="1.0" encoding="UTF-8"?><svg id="Capa_2" xmlns="http://www.w3.org/2000/svg" viewBox="0 0 985.54 281.01"><defs><style>.cls-1{fill:#e84728;}.cls-1,.cls-2{stroke-width:0px;}.cls-2{fill:#141f35;}</style></defs><g id="Capa_1-2"><path class="cls-1" d="M183.44,199.53c.28.19.6.39,1.52.91,9.12,5.14,16.86,12.41,22.64,21.13,3.77,5.69,7.36,11.09,8.52,12.88,1.15-1.79,4.75-7.19,8.52-12.88,5.78-8.72,13.52-15.99,22.64-21.13.92-.52,1.24-.73,1.52-.91.02-4.42.03-5.96.05-16.68,0-.46,0-.91,0-1.79-.29.19-.59.4-1.57.95-9.12,5.14-16.86,12.41-22.64,21.13-3.77,5.69-7.36,11.09-8.52,12.88-1.15-1.79-4.75-7.19-8.52-12.88-5.78-8.72-13.52-15.99-22.64-21.13-.97-.55-1.28-.75-1.57-.95,0,.87,0,1.33,0,1.79.02,10.71.03,12.26.05,16.68Z"/><path class="cls-1" d="M216.07,204.16s.04.08.05.07c.01,0,.05-.07.05-.07,6.35-13.36,17.22-24.04,30.68-30.16.62-.28.98-.45,1.84-.85-8.2-10.37-20.31-15.78-32.57-15.82h0s0,0,0,0c0,0,0,0,0,0h0c-12.25.04-24.37,5.45-32.57,15.82.86.4,1.22.57,1.84.85,13.46,6.12,24.34,16.8,30.68,30.16Z"/><path class="cls-2" d="M704.19,186.19l-15.18,34.8h-39.02l70.65-163.03h37.33l70.86,163.03h-39.23l-14.97-34.8h-70.44ZM739.21,105.21l-19.61,45.13h39.44l-19.82-45.13Z"/><path class="cls-2" d="M647.17,56.31l.64,164.68h-38.59l-83.73-109.04v109.04h-35.85V57.96h39.65l82.67,107.77V56.5l35.21-.19Z"/><path class="cls-2" d="M985.54,59.61l-72.97,163.03h-34.8l-80.74-164.68h39.23l58.8,115.96,51.25-114.31h39.23Z"/><path class="cls-1" d="M112.02,174.77c-.22-.34-.42-.68-.64-1.03-1.36-2.17-2.77-4.41-4.15-6.75-3.66-6.23-6-12.35-7.11-18.56-6.34-5.13-12.87-10.41-19.26-15.71-11.91-9.87-24.29-20.13-36.92-30.63-2.67-1.83-5.09-3.63-7.16-5.38-11.9-10.04-23.8-20.1-35.7-30.14,2.6,26.09,9.88,50.8,20.99,73.29,21.88,8.64,43.74,17.33,65.61,25.98.51.2,19.96,7.4,24.36,8.93Z"/><path class="cls-1" d="M115.17,202.02c1.17.07,7.38.49,13.83.92-2.48-4.14-4.95-8.26-7.4-12.33-1.08-1.8-2.17-3.61-3.25-5.41-22.09-5.97-58.98-14.32-81.85-20.43,8.17,12.11,17.55,23.33,27.95,33.51,3.35.42,7.34.9,12.17,1.44,12.79,1.43,25.69,1.55,38.54,2.31Z"/><path class="cls-1" d="M143.45,227.3c-3.1-5.3-6.26-10.62-9.42-15.93-1.32-.14-2.72-.02-4.22.38-8.59,2.29-24.52,2.58-46.21,3.17,11.32,8.72,23.53,16.34,36.48,22.69,2.37-1.01,17.8-1.95,26.96-4.13-1.18-2.04-2.38-4.1-3.59-6.17Z"/><path class="cls-1" d="M143.07,154.33c-4.71-9.81-2.88-21.13-6.31-31.19-4.31-9.16-13.53-14.72-20.47-21.77C79.13,67.53,41.77,34.03,4.77,0,1.66,14.55,0,29.64,0,45.11c0,.4.01.81.02,1.21,37.32,32.6,77.7,62.76,114,95.84.62,11.02,7.49,20.02,13.02,29.13,14.02,23.36,28.14,46.67,41.55,70.39,15.75,14.47,15.94,14.52,17.44,15.83,1.5,1.31,4.31,3.89,25.37,23.49-1.77-3.09-54.64-99.23-68.33-126.68Z"/><path class="cls-1" d="M320.77,174.77c.22-.34.42-.68.64-1.03,1.36-2.17,2.77-4.41,4.15-6.75,3.66-6.23,6-12.35,7.11-18.56,6.34-5.13,12.87-10.41,19.26-15.71,11.91-9.87,24.29-20.13,36.92-30.63,2.67-1.83,5.09-3.63,7.16-5.38,11.9-10.04,23.8-20.1,35.7-30.14-2.6,26.09-9.88,50.8-20.99,73.29-21.88,8.64-43.74,17.33-65.61,25.98-.51.2-19.96,7.4-24.36,8.93Z"/><path class="cls-1" d="M317.63,202.02c-1.17.07-7.38.49-13.83.92,2.48-4.14,4.95-8.26,7.4-12.33,1.08-1.8,2.17-3.61,3.25-5.41,22.09-5.97,58.98-14.32,81.85-20.43-8.17,12.11-17.55,23.33-27.95,33.51-3.35.42-7.34.9-12.17,1.44-12.79,1.43-25.69,1.55-38.54,2.31Z"/><path class="cls-1" d="M289.35,227.3c3.1-5.3,6.26-10.62,9.42-15.93,1.32-.14,2.72-.02,4.22.38,8.59,2.29,24.52,2.58,46.21,3.17-11.32,8.72-23.53,16.34-36.48,22.69-2.37-1.01-17.8-1.95-26.96-4.13,1.18-2.04,2.38-4.1,3.59-6.17Z"/><path class="cls-1" d="M221.4,281.01c1.77-3.09,54.64-99.23,68.33-126.68,4.71-9.81,2.88-21.13,6.31-31.19,4.31-9.16,13.53-14.72,20.47-21.77C353.66,67.53,391.02,34.03,428.02,0c3.12,14.55,4.77,29.64,4.77,45.11,0,.4-.01.81-.02,1.21-37.32,32.6-77.7,62.76-114,95.84-.62,11.02-7.49,20.02-13.02,29.13-14.02,23.36-28.14,46.67-41.55,70.39"/></g></svg>